<svg width="29" height="28" viewBox="0 0 29 28" fill="none" xmlns="http://www.w3.org/2000/svg">
<g clip-path="url(#clip0_117_43)">
<path d="M19.7361 10.5283H27.0173C27.7053 10.5283 28.2629 11.086 28.2629 11.7739V18.4062C28.2629 20.9344 26.2134 22.984 23.6852 22.984H23.6635C21.1353 22.9844 19.0854 20.9351 19.0851 18.4068V11.1794C19.085 11.0939 19.1018 11.0092 19.1345 10.9302C19.1672 10.8512 19.2152 10.7794 19.2756 10.719C19.3361 10.6585 19.4079 10.6105 19.4869 10.5778C19.5659 10.5451 19.6506 10.5283 19.7361 10.5283Z" fill="#5059C9"/>
<path d="M24.6574 9.21748C26.2867 9.21748 27.6075 7.8967 27.6075 6.26743C27.6075 4.63816 26.2867 3.31738 24.6574 3.31738C23.0282 3.31738 21.7074 4.63816 21.7074 6.26743C21.7074 7.8967 23.0282 9.21748 24.6574 9.21748Z" fill="#5059C9"/>
<path d="M15.4797 9.21765C17.8331 9.21765 19.7408 7.30986 19.7408 4.95648C19.7408 2.6031 17.8331 0.695312 15.4797 0.695312C13.1263 0.695312 11.2185 2.6031 11.2185 4.95648C11.2185 7.30986 13.1263 9.21765 15.4797 9.21765Z" fill="#7B83EB"/>
<path d="M21.1614 10.5283H9.14243C8.4627 10.5452 7.92502 11.1093 7.94076 11.789V19.3535C7.84584 23.4325 11.0729 26.8175 15.1519 26.9174C19.2308 26.8175 22.4579 23.4325 22.3631 19.3535V11.789C22.3788 11.1093 21.8412 10.5452 21.1614 10.5283Z" fill="#7B83EB"/>
<path opacity="0.1" d="M15.8074 10.5283V21.1287C15.8058 21.3665 15.734 21.5985 15.6011 21.7956C15.4681 21.9927 15.2799 22.1462 15.06 22.2367C14.9169 22.2972 14.763 22.3284 14.6077 22.3284H8.51741C8.43218 22.112 8.35356 21.8957 8.28793 21.6729C8.05845 20.9207 7.94138 20.1386 7.94052 19.3522V11.787C7.92478 11.1084 8.46158 10.5452 9.14021 10.5284L15.8074 10.5283Z" fill="black"/>
<path opacity="0.2" d="M15.1518 10.5283V21.7843C15.1518 21.9397 15.1206 22.0935 15.06 22.2367C14.9695 22.4565 14.8161 22.6448 14.619 22.7777C14.4218 22.9107 14.1898 22.9824 13.9521 22.984H8.82575C8.71431 22.7676 8.60938 22.5513 8.51765 22.3284C8.42953 22.1142 8.35293 21.8953 8.28818 21.6729C8.05869 20.9207 7.94162 20.1386 7.94077 19.3522V11.787C7.92502 11.1084 8.46182 10.5452 9.14045 10.5284L15.1518 10.5283Z" fill="black"/>
<path opacity="0.2" d="M15.1518 10.5283V20.4732C15.1468 21.1337 14.6126 21.6679 13.9521 21.6729H8.28805C8.05857 20.9207 7.9415 20.1386 7.94065 19.3522V11.787C7.9249 11.1084 8.4617 10.5452 9.14033 10.5284L15.1518 10.5283Z" fill="black"/>
<path opacity="0.2" d="M14.4962 10.5283V20.4732C14.4912 21.1337 13.957 21.6679 13.2966 21.6729H8.28805C8.05857 20.9207 7.9415 20.1386 7.94065 19.3522V11.787C7.9249 11.1084 8.4617 10.5452 9.14033 10.5284L14.4962 10.5283Z" fill="black"/>
<path opacity="0.1" d="M15.8075 7.13914V9.2041C15.696 9.2107 15.5911 9.21731 15.4797 9.21731C15.3682 9.21731 15.2633 9.2107 15.1519 9.2041C14.9306 9.18941 14.7112 9.15432 14.4964 9.09927C13.8419 8.94427 13.2334 8.63657 12.7207 8.20133C12.208 7.76608 11.8055 7.21566 11.5463 6.59507C11.4558 6.38366 11.3856 6.16414 11.3365 5.93945H14.6078C15.2692 5.94199 15.805 6.47758 15.8075 7.13914Z" fill="black"/>
<path opacity="0.2" d="M15.1517 7.79479V9.20424C14.9304 9.18956 14.711 9.15447 14.4962 9.09941C13.8418 8.9444 13.2333 8.63669 12.7206 8.20145C12.2079 7.76621 11.8055 7.21579 11.5463 6.59521H13.952C14.6136 6.59764 15.1492 7.13334 15.1517 7.79479Z" fill="black"/>
<path opacity="0.2" d="M15.1517 7.79479V9.20424C14.9304 9.18956 14.711 9.15447 14.4962 9.09941C13.8418 8.9444 13.2333 8.63669 12.7206 8.20145C12.2079 7.76621 11.8055 7.21579 11.5463 6.59521H13.952C14.6136 6.59764 15.1492 7.13334 15.1517 7.79479Z" fill="black"/>
<path opacity="0.2" d="M14.4963 7.79441V9.09904C13.8419 8.94403 13.2334 8.63631 12.7206 8.20105C12.2079 7.76578 11.8055 7.21534 11.5463 6.59473H13.2966C13.9582 6.59726 14.4938 7.13296 14.4963 7.79441Z" fill="black"/>
<path d="M1.27564 6.59484H13.2945C13.9583 6.59484 14.4963 7.13285 14.4963 7.7965V19.8155C14.4963 20.4792 13.9583 21.0172 13.2946 21.0172H1.27564C0.611989 21.0172 0.0739746 20.4792 0.0739746 19.8155V7.79662C0.0739746 7.13274 0.611989 6.59484 1.27564 6.59484Z" fill="url(#paint0_linear_117_43)"/>
<path d="M10.4476 11.17H8.04493V17.7125H6.51425V11.17H4.1228V9.90088H10.4476V11.17Z" fill="white"/>
</g>
<defs>
<linearGradient id="paint0_linear_117_43" x1="250.619" y1="-87.2953" x2="1191.77" y2="1542.72" gradientUnits="userSpaceOnUse">
<stop stop-color="#5A62C3"/>
<stop offset="0.5" stop-color="#4D55BD"/>
<stop offset="1" stop-color="#3940AB"/>
</linearGradient>
<clipPath id="clip0_117_43">
<rect width="28.189" height="26.3171" fill="white" transform="translate(0.0739746 0.695312)"/>
</clipPath>
</defs>
</svg>
