<svg width="24" height="24" viewBox="0 0 24 24" fill="none" xmlns="http://www.w3.org/2000/svg">
<g clip-path="url(#clip0_306_421)">
<path fill-rule="evenodd" clip-rule="evenodd" d="M12.9031 15.9963C13.8974 15.4214 14.7661 14.6524 15.4574 13.7352C15.2346 13.3886 15.076 13.0048 14.9894 12.602L14.9568 12.4512C14.8634 12.0205 14.6435 11.6275 14.3252 11.3227C14.007 11.0178 13.6049 10.815 13.1705 10.7403C9.61853 10.1232 9.61853 5.02488 13.1705 4.40603C13.59 4.33382 13.9798 4.14207 14.293 3.85379C14.6062 3.56552 14.8296 3.19298 14.9362 2.78088C14.101 1.87071 13.0789 1.15184 11.9399 0.673509C10.8009 0.19518 9.572 -0.0313024 8.33734 0.00957775C7.10268 0.0504579 5.89144 0.357734 4.7866 0.910357C3.68176 1.46298 2.70943 2.24789 1.93621 3.21132C1.16299 4.17475 0.607162 5.29393 0.306793 6.4922C0.0064247 7.69046 -0.0313831 8.9395 0.19596 10.1537C0.423303 11.368 0.910424 12.5187 1.62396 13.5272C2.33749 14.5356 3.26056 15.3779 4.32996 15.9963V18.0003C4.32996 18.455 4.51057 18.891 4.83206 19.2125C5.15355 19.534 5.58958 19.7146 6.04424 19.7146H11.1871C11.6418 19.7146 12.0778 19.534 12.3993 19.2125C12.7208 18.891 12.9014 18.455 12.9014 18.0003L12.9031 15.9963ZM4.33167 22.7146C4.33167 22.3736 4.46713 22.0466 4.70825 21.8055C4.94937 21.5643 5.27639 21.4289 5.61738 21.4289H11.6174C11.9584 21.4289 12.2854 21.5643 12.5265 21.8055C12.7676 22.0466 12.9031 22.3736 12.9031 22.7146C12.9031 23.0556 12.7676 23.3826 12.5265 23.6237C12.2854 23.8649 11.9584 24.0003 11.6174 24.0003H5.61738C5.27639 24.0003 4.94937 23.8649 4.70825 23.6237C4.46713 23.3826 4.33167 23.0556 4.33167 22.7146ZM16.8117 2.94374C17.1254 1.5106 19.1654 1.50203 19.4911 2.93174L19.5065 3.00031L19.5374 3.13403C19.7224 3.91709 20.133 4.62871 20.7183 5.18082C21.3036 5.73293 22.038 6.10129 22.8305 6.24031C24.3254 6.50088 24.3254 8.64717 22.8305 8.90774C22.0334 9.04739 21.2952 9.41901 20.7082 9.9761C20.1212 10.5332 19.7116 11.251 19.5305 12.0397L19.4911 12.2146C19.1654 13.646 17.1237 13.6375 16.8082 12.2026L16.7757 12.0535C16.6028 11.2617 16.1981 10.5393 15.6132 9.97847C15.0282 9.41761 14.2894 9.04367 13.4911 8.90431C11.998 8.64546 11.998 6.5026 13.4911 6.24203C14.2866 6.10368 15.0232 5.73239 15.6076 5.17515C16.192 4.61792 16.5979 3.89981 16.774 3.11174L16.7997 3.00031L16.8117 2.94374Z" fill="#1C6F8D"/>
</g>
<defs>
<clipPath id="clip0_306_421">
<rect width="24" height="24" fill="white"/>
</clipPath>
</defs>
</svg>
