<svg width="34" height="43" viewBox="0 0 34 43" fill="none" xmlns="http://www.w3.org/2000/svg">
<path d="M17.1465 0.429199C12.7165 0.434225 8.46933 2.19627 5.33683 5.32877C2.20433 8.46127 0.442281 12.7084 0.437256 17.1384C0.437256 31.4362 15.6275 42.2346 16.275 42.6865C16.5304 42.8654 16.8347 42.9614 17.1465 42.9614C17.4583 42.9614 17.7626 42.8654 18.018 42.6865C18.6655 42.2346 33.8557 31.4362 33.8557 17.1384C33.8507 12.7084 32.0887 8.46127 28.9562 5.32877C25.8237 2.19627 21.5765 0.434225 17.1465 0.429199ZM17.1465 11.0624C18.3482 11.0624 19.523 11.4187 20.5222 12.0864C21.5214 12.754 22.3002 13.703 22.7601 14.8132C23.22 15.9235 23.3403 17.1452 23.1058 18.3238C22.8714 19.5025 22.2927 20.5851 21.4429 21.4349C20.5932 22.2846 19.5105 22.8633 18.3319 23.0978C17.1532 23.3322 15.9315 23.2119 14.8213 22.752C13.711 22.2921 12.7621 21.5133 12.0944 20.5141C11.4268 19.5149 11.0704 18.3402 11.0704 17.1384C11.0704 15.527 11.7106 13.9815 12.8501 12.842C13.9895 11.7025 15.535 11.0624 17.1465 11.0624Z" fill="#1C6F8D"/>
</svg>
